<svg xmlns="http://www.w3.org/2000/svg" width="300" height="169" viewBox="0 0 300 169">
  <rect width="300" height="169" fill="#fafaf9"/>
  <rect x="0" y="0" width="300" height="3" fill="#a16207"/>
  <rect x="20" y="18" width="160" height="8" rx="2" fill="#1c1917"/>
  <rect x="20" y="32" width="100" height="4" rx="2" fill="#78716c"/>
  <rect x="20" y="42" width="200" height="2" rx="1" fill="#d6d3d1"/>
  <rect x="20" y="52" width="50" height="4" rx="2" fill="#a16207"/>
  <rect x="20" y="62" width="260" height="2.5" rx="1.25" fill="#a8a29e"/>
  <rect x="20" y="69" width="240" height="2.5" rx="1.25" fill="#a8a29e"/>
  <rect x="20" y="76" width="250" height="2.5" rx="1.25" fill="#a8a29e"/>
  <rect x="20" y="90" width="50" height="4" rx="2" fill="#a16207"/>
  <rect x="20" y="100" width="260" height="2.5" rx="1.25" fill="#a8a29e"/>
  <rect x="20" y="107" width="220" height="2.5" rx="1.25" fill="#a8a29e"/>
  <rect x="20" y="121" width="50" height="4" rx="2" fill="#a16207"/>
  <rect x="20" y="131" width="60" height="18" rx="3" fill="#fef3c7" stroke="#fcd34d" stroke-width="1"/>
  <rect x="88" y="131" width="55" height="18" rx="3" fill="#fef3c7" stroke="#fcd34d" stroke-width="1"/>
  <rect x="151" y="131" width="70" height="18" rx="3" fill="#fef3c7" stroke="#fcd34d" stroke-width="1"/>
  <rect x="27" y="137" width="46" height="3" rx="1.5" fill="#92400e"/>
  <rect x="95" y="137" width="41" height="3" rx="1.5" fill="#92400e"/>
  <rect x="158" y="137" width="56" height="3" rx="1.5" fill="#92400e"/>
  <rect x="0" y="166" width="300" height="3" fill="#e7e5e4"/>
</svg>
