<svg xmlns="http://www.w3.org/2000/svg" width="300" height="169" viewBox="0 0 300 169">
  <rect width="300" height="169" fill="#0f172a"/>
  <rect x="0" y="0" width="90" height="169" fill="#1e293b"/>
  <circle cx="45" cy="40" r="22" fill="#6366f1"/>
  <rect x="10" y="70" width="70" height="6" rx="3" fill="#94a3b8"/>
  <rect x="18" y="82" width="54" height="4" rx="2" fill="#475569"/>
  <rect x="18" y="92" width="46" height="4" rx="2" fill="#475569"/>
  <rect x="18" y="108" width="60" height="3" rx="1.5" fill="#334155"/>
  <rect x="18" y="116" width="50" height="3" rx="1.5" fill="#334155"/>
  <rect x="18" y="124" width="55" height="3" rx="1.5" fill="#334155"/>
  <rect x="110" y="12" width="170" height="7" rx="3.5" fill="#f8fafc"/>
  <rect x="110" y="26" width="120" height="4" rx="2" fill="#94a3b8"/>
  <rect x="110" y="50" width="60" height="4" rx="2" fill="#6366f1"/>
  <rect x="110" y="60" width="170" height="3" rx="1.5" fill="#475569"/>
  <rect x="110" y="68" width="150" height="3" rx="1.5" fill="#475569"/>
  <rect x="110" y="76" width="160" height="3" rx="1.5" fill="#475569"/>
  <rect x="110" y="95" width="60" height="4" rx="2" fill="#6366f1"/>
  <rect x="110" y="107" width="170" height="3" rx="1.5" fill="#475569"/>
  <rect x="110" y="115" width="140" height="3" rx="1.5" fill="#475569"/>
  <rect x="110" y="130" width="60" height="4" rx="2" fill="#6366f1"/>
  <rect x="110" y="142" width="170" height="3" rx="1.5" fill="#475569"/>
  <rect x="110" y="150" width="150" height="3" rx="1.5" fill="#475569"/>
  <text x="150" y="163" font-family="sans-serif" font-size="7" fill="#64748b" text-anchor="middle">Modern Creative</text>
</svg>
