<svg xmlns="http://www.w3.org/2000/svg" width="300" height="169" viewBox="0 0 300 169">
  <rect width="300" height="169" fill="#ffffff"/>
  <rect x="0" y="0" width="300" height="45" fill="#1a1a1a"/>
  <circle cx="30" cy="22" r="16" fill="#444"/>
  <rect x="55" y="12" width="130" height="7" rx="3.5" fill="#ffffff"/>
  <rect x="55" y="26" width="90" height="4" rx="2" fill="#9ca3af"/>
  <rect x="220" y="14" width="65" height="18" rx="3" fill="#ffffff" fill-opacity="0.1" stroke="#ffffff" stroke-width="1"/>
  <rect x="228" y="20" width="49" height="3" rx="1.5" fill="#ffffff"/>
  <rect x="15" y="58" width="50" height="4" rx="2" fill="#1a1a1a"/>
  <rect x="15" y="66" width="270" height="1" fill="#e5e7eb"/>
  <rect x="15" y="74" width="270" height="3" rx="1.5" fill="#6b7280"/>
  <rect x="15" y="82" width="240" height="3" rx="1.5" fill="#6b7280"/>
  <rect x="15" y="90" width="255" height="3" rx="1.5" fill="#6b7280"/>
  <rect x="15" y="106" width="50" height="4" rx="2" fill="#1a1a1a"/>
  <rect x="15" y="114" width="270" height="1" fill="#e5e7eb"/>
  <rect x="15" y="122" width="270" height="3" rx="1.5" fill="#6b7280"/>
  <rect x="15" y="130" width="200" height="3" rx="1.5" fill="#6b7280"/>
  <rect x="15" y="145" width="50" height="4" rx="2" fill="#1a1a1a"/>
  <rect x="15" y="153" width="270" height="1" fill="#e5e7eb"/>
  <rect x="15" y="161" width="230" height="3" rx="1.5" fill="#6b7280"/>
  <text x="150" y="168" font-family="sans-serif" font-size="0" fill="none"/>
</svg>
